<?xml version="1.0" encoding="utf-8"?>
<!-- Generator: Adobe Illustrator 23.0.3, SVG Export Plug-In . SVG Version: 6.00 Build 0)  -->
<svg version="1.1" id="Calque_1" xmlns="http://www.w3.org/2000/svg" xmlns:xlink="http://www.w3.org/1999/xlink" x="0px" y="0px"
	 viewBox="0 0 288 204.61" style="enable-background:new 0 0 288 204.61;" xml:space="preserve">
<style type="text/css">
	.st0{fill:#57A0B9;}
	.st1{fill:#4866B0;}
	.st2{fill:#2E3543;}
</style>
<g>
	<path class="st0" d="M72.6,119.51c-17.42,12.85-30.63,28.18-36,34.85c4.38,0.85,10.51-1.3,16.95-0.99
		c10.98,0.54,13.51,4.03,27.58,10.22c13.72,6.03,69.15,24.57,76.09,25.25C130,172.53,89.4,145.35,72.6,119.51z"/>
	<path class="st1" d="M163.39,186.34c-4-17.85-10.57-51.47-11.2-82.27c-3.32-0.81-6.78-1.73-10.4-2.81
		c-24.94-7.42-49.69,3.87-69.18,18.25c16.79,25.84,57.4,53.03,84.62,69.32c0.18,0.02,0.35,0.03,0.46,0.03
		C160.29,188.7,162.04,187.37,163.39,186.34z"/>
	<path class="st2" d="M246.65,143.87c3.97-12.96-18.57-34.43-30.01-43.64c-0.46,0.34-0.98,0.69-1.55,1.05
		c-7.85,4.98-26.27,11.71-62.9,2.79c0.63,30.8,7.2,64.42,11.2,82.27c0.97-0.75,1.75-1.36,2.45-1.24c1.69,0.27,1.97,4.57,5.91,5.91
		c3.94,1.34,9.57-1.08,16.6-3.23c0.77-0.23,1.59-0.56,2.45-0.95c7.02-3.14,17.04-10.93,29.07-17.87
		c13.51-7.8,21.67-11.56,30.96-23.93L246.65,143.87z"/>
	<path class="st1" d="M192.98,19.19c-2.89,0.08-6.08,0.16-9.42,0.23c1.39,1.06,2.76,2.16,4.09,3.31
		C189.39,21.49,191.16,20.3,192.98,19.19z"/>
	<path class="st0" d="M61.75,73.12c-10.79,20.09-32.83,62.4-31.28,72.99c0.09,0.63,0.22,1.17,0.35,1.71
		c6.38-7.86,19.87-23.12,37.55-35.92c-0.52-1.13-1-2.25-1.4-3.36C62.63,96.69,61.01,84.65,61.75,73.12z"/>
	<path class="st1" d="M144.38,93.3c2.7,0.8,5.28,1.5,7.79,2.15c0.31-16.83,2.73-32.22,8.74-42.93
		c6.84-12.19,16.11-22.22,26.73-29.78c-1.33-1.15-2.7-2.24-4.09-3.31c-17.3,0.38-39.08,0.66-50.07,0.33
		c-18.01-0.54-12.1,2.42-18.67,6.18c-6.57,3.76-21.01,15.86-34.52,19.09c-13.51,3.23-10.13,12.37-12.95,17.74
		c-0.6,1.14-2.69,4.95-5.59,10.35c-0.74,11.53,0.88,23.58,5.21,35.42c0.41,1.12,0.89,2.24,1.4,3.36
		C89.37,96.69,116.31,84.95,144.38,93.3z"/>
	<path class="st2" d="M254.26,114.21c-1.17-11.14-2.04-38.71-5.25-46.78c-3.21-8.08-16.32-6.68-16.62-11.14
		c-0.26-3.99-1.92-14.21-2.27-19.51c-0.04-0.62-0.06-1.18-0.06-1.65l-0.29-8.91c-0.29-8.91-13.41-8.08-22.45-7.52
		c-2.45,0.15-7.84,0.34-14.75,0.53c-1.88,1.15-3.71,2.38-5.52,3.67c-11,7.83-20.6,18.22-27.69,30.85
		c-6.23,11.09-8.73,27.04-9.06,44.47c48.76,12.49,62.9-3.24,63.05-3.41l2.8-3.29l0.54,0.39l3.01,2.16
		c3.85,2.87,32.83,25.11,37.37,45.78C259,130.84,255.13,122.45,254.26,114.21z"/>
</g>
</svg>
